<svg id="Layer_1" data-name="Layer 1" xmlns="http://www.w3.org/2000/svg" viewBox="0 0 408.81 386.43"><path d="M744.6,1147c-2.4,5.07-6.45,6.61-11.94,6.6q-192.4-.15-384.8-.08c-9.28,0-12.05-2.82-12.06-12.21,0-2.67,0-5.33,0-8,.11-8.66,4.53-13.81,13.1-15.32.52-.09,1-.27,2-.55,0-3-.08-6,0-9,.24-8.19,5.91-14,14.11-14.28,5.55-.18,11.11,0,17.21,0,0-3.84,0-7.25,0-10.66,0-8.33,2.61-11.76,11-14.27v-8.52c0-8.53,1.49-11.42,5.89-11.5s6.1,2.9,6.1,11.7v8.28h18.91V947.79H405.26V952q0,35.93,0,71.85a18.72,18.72,0,0,1-.18,4c-.67,3.08-2.63,5-5.86,5s-5.17-1.94-5.78-5a22.76,22.76,0,0,1-.16-4.38q0-37.71,0-75.35c-9.37-3.72-11-6.13-11-16.08v-9.09c-5.37,0-10.26,0-15.15,0-8.38-.1-12.77-4.49-12.87-12.84,0-3.43,0-6.85,0-10.46-3.54-.21-6.71-.19-9.82-.65-4.87-.73-7.51-3.59-7.95-8.5-.26-2.91,0-5.86-.21-8.77-.35-5.61,2.18-9.14,7.13-11.7,25.95-13.47,51.8-27.11,77.69-40.68,37.78-19.81,75.59-39.54,113.28-59.51,6.15-3.26,11.54-3.57,17.59,0,7.76,4.61,15.85,8.69,23.81,13,2.6,1.4,4.64,3.13,4.44,6.44-.27,4.64-4.79,6.86-9.5,4.4-8.12-4.24-16.21-8.57-24.18-13.1-2.52-1.44-4.38-1.3-6.89,0Q446,829.81,352.17,878.83c-3.76,2-4.59,4.27-3.4,8.19h382.9c1.13-3.93.28-6.3-3.59-8.37q-64.49-34.56-128.76-69.49a27.14,27.14,0,0,1-3.73-2.28c-2.53-2-3.2-4.61-1.69-7.44s4.15-3.62,7.16-2.76a18.71,18.71,0,0,1,3.59,1.71Q670.58,834,736.54,869.62c5.34,2.87,8.11,6.56,7.6,12.64-.17,2,0,4,0,6-.18,7.43-3.63,10.86-11.1,11-2.1.05-4.21,0-6.84,0,0,3.85.05,7.39,0,10.94-.12,8.08-4.55,12.5-12.68,12.62-4.9.06-9.8,0-15.33,0v9.71c0,9.32-2.12,12.29-10.9,15.26v121.22c9.1,3.48,10.89,6.07,10.9,15.66v9.42c4.43,0,8.64.28,12.81-.05,13.22-1,19.64,7,18.56,18.4-.15,1.58,0,3.18,0,5.23,7.6.17,12.21,4.43,15.11,10.94Zm-267.9-77.82V947.82c-8.7-2.89-10.78-5.8-10.78-15v-9.72H447.71c-.24,5.26-.09,10.32-.79,15.27-.81,5.71-5.3,8.14-10.36,9.33v121.53c8.54,2.66,10.87,5.87,10.89,14.87v9.77h18.47v-9.71C465.92,1075,468,1072.14,476.7,1069.21Zm167.05.12V947.69c-8.17-2.39-10.76-5.84-10.8-14.19,0-3.41,0-6.82,0-10.31H614.48v9c0,9.85-1.68,12.31-10.84,15.7v121.14c9.34,3.6,10.84,5.85,10.84,16.11v9H633c0-4,0-7.27,0-10.58C633,1075.23,635.57,1071.77,643.75,1069.33ZM520.33,947.69v121.64c8.15,2.58,10.51,5.74,10.56,14,0,3.53,0,7.07,0,10.61h18.62c0-3.37,0-6.52,0-9.67,0-9.21,2-12,10.64-15V947.78c-8.49-2.81-10.61-5.77-10.64-14.64,0-3.28,0-6.55,0-9.94H530.89c0,3.74,0,7.17,0,10.6C530.83,942,528.42,945.18,520.33,947.69ZM732.6,1141.43c0-3,.33-5.74-.15-8.29-.23-1.23-1.84-2.55-3.14-3.12s-2.88-.15-4.34-.15q-183.56,0-367.1,0c-10.95,0-10.27-1.7-10,10.75,0,.22.26.43.5.79Zm-15.11-23.75v-3.6c.06-7.92.06-7.92-7.68-7.92q-168.42,0-336.85,0c-10.81,0-10.28-2.24-9.93,10.7,0,.22.27.44.51.79Zm-351-207.16H713.9V899.59H366.44Zm141.32,158.89V947.73H489.21v121.68Zm64.87-121.79v121.69h18.56V947.62Zm83.64,0v121.73h18.56V947.59ZM394.51,923.14v12.05h40.61V923.14Zm250.7-.11v12.14h40.57V923ZM435.07,1094v-12.16H394.58V1094Zm250.87-12.2H645.22v12h40.72ZM478,935.15h40.63v-12H478Zm124.32-12H561.77v12h40.58ZM518.61,1094v-12.13H478.23V1094Zm43.14-.13h40.49v-12.12H561.75Z" transform="translate(-335.79 -767.2)" fill="#222"/></svg>