<svg id="Layer_1" data-name="Layer 1" xmlns="http://www.w3.org/2000/svg" viewBox="0 0 384 304.41"><path d="M732,855v9.75a20.92,20.92,0,0,0-.64,2.88q-2.28,26.89-4.51,53.79c-3,35.61-6.34,71.19-8.74,106.84-1.05,15.57-14,31.27-35,28.17-1.9-.28-3.84-.25-6-.37,0,8.74.1,17,0,25.22a40.54,40.54,0,0,1-1,9.27c-3.39,13.31-14.73,21.66-29.19,21.66H388.1c-3.75,0-7.5,0-11.24,0a29,29,0,0,1-28-21.85c-.26-1-.57-1.89-.86-2.84V909.72a8.12,8.12,0,0,0,.61-1.35c3.71-14.68,14.36-23.1,29.5-23.25,6.72-.07,13.44,0,20.28,0,.23-1.35.45-2.31.55-3.29,1.73-16,3.34-32.05,5.2-48.06,1.95-16.69,15.86-27.37,32.65-25.82,23,2.12,46.06,3.89,69.09,5.81q33.06,2.76,66.11,5.51c22.29,1.87,44.57,3.8,66.85,5.66,22,1.84,44.08,3.58,66.11,5.47,9.07.77,16.7,4.62,21.69,12.34C729,846.42,730.25,850.86,732,855ZM363,990.83v90.35c0,10.7,5.38,16,16.21,16H645.74c11,0,16.36-5.36,16.36-16.3q0-42.93,0-85.86v-4.2Zm314.11,50c4.38.32,8.33.86,12.29.86a13.42,13.42,0,0,0,13.35-12.25c1.1-11.69,2-23.4,3-35.1l5.67-67.6c1.83-21.91,3.75-43.82,5.47-65.74.68-8.64-4.6-14.89-13.1-15.63q-40.69-3.52-81.41-6.84-42.76-3.54-85.53-7c-34.11-2.85-68.21-5.79-102.32-8.62-8.25-.69-14.43,4.17-15.46,12.37-1.37,10.9-2.42,21.85-3.59,32.78-.59,5.54-1.15,11.09-1.78,17.1H419q112.86,0,225.71,0a45.79,45.79,0,0,1,10.4,1c13.51,3.17,22,14.73,22,29.68q0,60.18,0,120.37Zm-313.93-65.4H661.82V944.63H363.18Zm-.13-46.26H661.89c0-5.85.41-11.48-.11-17-.61-6.43-5.36-10.8-11.78-11.79a31.41,31.41,0,0,0-4.86-.23q-132.55,0-265.11,0a31,31,0,0,0-6.32.52,13.3,13.3,0,0,0-10.6,12.09C362.83,918.08,363.05,923.45,363.05,929.16Z" transform="translate(-348 -807.79)" fill="#222"/><path d="M594.75,1074.93c-11.5,0-23,0-34.5,0-6.74,0-9.2-2.52-9.21-9.34q0-21.75,0-43.51c0-6.56,2.53-9.13,9.05-9.14q34.5-.06,69,0c6.46,0,9.08,2.7,9.09,9.17q0,21.93,0,43.88c0,6.2-2.71,8.91-8.93,8.93C617.75,1075,606.25,1074.93,594.75,1074.93ZM623,1028.17H566.32v31.44H623Z" transform="translate(-348 -807.79)" fill="#222"/></svg>