<svg width="6665" height="1081" viewBox="0 0 6665 1081" fill="none" xmlns="http://www.w3.org/2000/svg">
<path d="M2036.99 533.996C2158.38 505.636 2207.16 436.436 2207.16 346.817C2207.16 225.434 2114.14 146.024 1962.12 146.024H1616.12V940.119H1992.75C2137.96 940.119 2235.52 855.037 2235.52 716.638C2235.52 633.825 2186.74 555.55 2036.99 533.996ZM1763.6 277.617H1945.11C2010.9 277.617 2050.61 307.112 2050.61 370.64C2050.61 442.108 2016.58 477.275 1946.24 477.275H1763.6V277.617ZM1962.12 808.526H1763.6V600.927H1953.05C2032.46 600.927 2078.97 632.691 2078.97 698.487C2078.97 774.493 2040.4 808.526 1962.12 808.526Z" fill="#14363D"/>
<path d="M2708.51 384.253V509.039C2673.34 421.689 2604.14 372.908 2508.85 372.908C2353.44 372.908 2262.68 488.619 2262.68 663.32C2262.68 835.752 2356.84 951.463 2515.66 951.463C2607.55 951.463 2674.48 903.817 2708.51 818.736V940.119H2852.58V384.253H2708.51ZM2558.77 821.004C2454.4 821.004 2407.89 772.224 2407.89 663.32C2407.89 552.147 2454.4 503.367 2558.77 503.367C2666.54 503.367 2713.05 552.147 2713.05 663.32C2713.05 772.224 2666.54 821.004 2558.77 821.004Z" fill="#14363D"/>
<path d="M3285.88 372.908C3186.05 372.908 3129.33 423.957 3102.1 513.577V384.253H2958.03V940.119H3102.1V674.664C3102.1 560.088 3152.01 503.367 3232.56 503.367C3301.76 503.367 3340.33 540.803 3340.33 615.674V940.119H3484.4V607.733C3484.4 451.183 3417.47 372.908 3285.88 372.908Z" fill="#14363D"/>
<path d="M3959.23 940.119H4131.66L3912.71 612.271L4124.85 384.253H3944.48L3806.08 556.684L3727.8 681.471V146.024H3583.73V940.119H3727.8V809.66L3823.09 707.562L3959.23 940.119Z" fill="#14363D"/>
<path d="M4464.06 951.464C4648.97 951.464 4765.81 851.635 4765.81 700.757C4765.81 573.702 4686.4 510.175 4558.21 486.352L4433.43 462.529C4350.62 447.782 4313.18 431.9 4313.18 361.566C4313.18 291.232 4349.48 264.006 4444.77 264.006C4540.06 264.006 4604.73 288.963 4611.53 421.69L4754.47 381.985C4739.72 214.091 4620.61 134.682 4445.91 134.682C4274.61 134.682 4157.76 227.704 4157.76 368.372C4157.76 521.519 4258.73 577.106 4358.56 596.391L4493.55 622.482C4580.9 639.499 4611.53 653.112 4611.53 721.177C4611.53 794.914 4570.69 824.409 4467.46 824.409C4364.23 824.409 4304.1 792.645 4291.63 658.784L4138.48 699.623C4162.3 877.727 4289.36 951.464 4464.06 951.464Z" fill="#14363D"/>
<path d="M5235.52 384.254V509.04C5200.35 421.69 5131.15 372.91 5035.86 372.91C4880.44 372.91 4789.69 488.621 4789.69 663.321C4789.69 835.753 4883.85 951.464 5042.66 951.464C5134.55 951.464 5201.48 903.818 5235.52 818.737V940.12H5379.59V384.254H5235.52ZM5085.77 821.006C4981.41 821.006 4934.89 772.226 4934.89 663.321C4934.89 552.148 4981.41 503.368 5085.77 503.368C5193.54 503.368 5240.05 552.148 5240.05 663.321C5240.05 772.226 5193.54 821.006 5085.77 821.006Z" fill="#14363D"/>
<path d="M5835.57 511.309V384.254H5674.48V218.629H5530.41V384.254H5423.78V511.309H5530.41V767.688C5530.41 870.92 5599.61 940.12 5702.84 940.12H5821.96V813.065H5674.48V511.309H5835.57Z" fill="#14363D"/>
<path d="M6221.45 372.91C6121.62 372.91 6064.9 423.959 6037.68 513.578V146.026H5893.6V940.12H6037.68V674.666C6037.68 560.089 6087.59 503.368 6168.13 503.368C6237.33 503.368 6275.9 540.804 6275.9 615.676V940.12H6419.97V607.735C6419.97 451.185 6353.04 372.91 6221.45 372.91Z" fill="#14363D"/>
<path d="M6519.31 940.12H6663.38V384.254H6519.31V940.12Z" fill="#14363D"/>
<path d="M6517.49 152.485H6664.09V291.702H6517.49V152.485Z" fill="#14363D"/>
<path d="M1114.54 605.009C1114.54 652.32 1085.09 694.632 1040.73 711.069L696.231 838.642V1080.01L1119.33 923.189C1252.42 873.877 1340.75 746.941 1340.75 605.009L1340.75 255.533C1340.75 124.747 1210.83 33.7014 1087.89 78.3452L644.609 241.357V480.751L1114.54 309.336L1114.54 605.009Z" fill="#A882DD"/>
<path d="M226.315 475.012C226.315 427.702 255.761 385.39 300.124 368.952L644.624 241.379V0.0108967L221.53 156.832C88.44 206.144 0.10268 333.08 0.102717 475.012L0.102778 824.489C0.102784 955.275 130.03 1046.32 252.961 1001.68L696.246 838.664V599.27L226.315 770.685L226.315 475.012Z" fill="#49D49D"/>
</svg>
